<?xml version="1.0" encoding="utf-8"?>
<!-- Generator: Adobe Illustrator 17.0.0, SVG Export Plug-In . SVG Version: 6.00 Build 0)  -->
<!DOCTYPE svg PUBLIC "-//W3C//DTD SVG 1.1//EN" "http://www.w3.org/Graphics/SVG/1.1/DTD/svg11.dtd">
<svg version="1.1" id="Capa_1" xmlns="http://www.w3.org/2000/svg" xmlns:xlink="http://www.w3.org/1999/xlink" x="0px" y="0px"
	 width="131px" height="26.835px" viewBox="0 0 131 26.835" enable-background="new 0 0 131 26.835" xml:space="preserve">
<g>
	<g>
		<g>
			<g>
				<defs>
					<path id="SVGID_1_" d="M12.191,10.114"/>
				</defs>
				<clipPath id="SVGID_2_">
					<use xlink:href="#SVGID_1_"  overflow="visible"/>
				</clipPath>
			</g>
		</g>
	</g>
	<g>
		<g>
			<g>
				<path fill="#7E7E8C" d="M30.393,21.743h-1.677V8.692h2.041L37.1,18.845h0.073L37.1,16.33V8.692h1.677v13.051h-1.75
					l-6.635-10.645H30.32l0.073,2.515V21.743z"/>
				<path fill="#7E7E8C" d="M38.991,21.957h-2.083l-6.355-10.197l0.054,1.847l0,8.35h-2.105V8.478h2.374l6.064,9.706l-0.054-1.848
					l0-7.858h2.105V21.957z M37.146,21.529h1.417V8.907h-1.249v7.423l0.079,2.73h-0.412L30.639,8.907H28.93v12.622h1.249v-7.915
					l-0.079-2.729h0.412L37.146,21.529z"/>
			</g>
			<g>
				<path fill="#7E7E8C" d="M41.689,17.388c0-1.342,0.422-2.453,1.265-3.333c0.855-0.879,1.931-1.319,3.226-1.319
					c1.295,0,2.364,0.44,3.208,1.319c0.855,0.879,1.283,1.99,1.283,3.333c0,1.354-0.428,2.465-1.283,3.333
					c-0.844,0.879-1.913,1.319-3.208,1.319c-1.295,0-2.37-0.439-3.226-1.319C42.11,19.842,41.689,18.731,41.689,17.388z
					 M43.328,17.388c0,0.939,0.273,1.699,0.82,2.281c0.546,0.582,1.224,0.873,2.032,0.873c0.808,0,1.485-0.291,2.032-0.873
					c0.546-0.582,0.82-1.342,0.82-2.281c0-0.927-0.273-1.681-0.82-2.263c-0.559-0.594-1.236-0.891-2.032-0.891
					c-0.796,0-1.473,0.297-2.032,0.891C43.602,15.707,43.328,16.461,43.328,17.388z"/>
				<path fill="#7E7E8C" d="M46.18,22.249c-1.348,0-2.484-0.465-3.376-1.382c-0.879-0.916-1.325-2.086-1.325-3.478
					c0-1.392,0.445-2.562,1.324-3.478c0.893-0.918,2.029-1.383,3.377-1.383c1.348,0,2.478,0.465,3.359,1.383
					c0.89,0.915,1.341,2.085,1.341,3.478c0,1.405-0.452,2.576-1.343,3.48C48.658,21.783,47.528,22.249,46.18,22.249z M46.18,12.946
					c-1.23,0-2.265,0.422-3.076,1.255c-0.8,0.834-1.206,1.906-1.206,3.187c0,1.281,0.406,2.353,1.207,3.187
					c0.809,0.832,1.844,1.255,3.075,1.255c1.23,0,2.258-0.422,3.057-1.254c0.813-0.825,1.225-1.896,1.225-3.188
					c0-1.28-0.412-2.352-1.224-3.187C48.438,13.368,47.409,12.946,46.18,12.946z M46.18,20.752c-0.865,0-1.6-0.316-2.184-0.939
					c-0.582-0.619-0.876-1.435-0.876-2.424c0-0.977,0.295-1.787,0.876-2.407c0.597-0.635,1.332-0.957,2.184-0.957
					c0.852,0,1.587,0.322,2.184,0.957c0.582,0.62,0.877,1.43,0.877,2.407c0,0.989-0.295,1.805-0.876,2.424
					C47.779,20.436,47.044,20.752,46.18,20.752z M46.18,14.443c-0.743,0-1.357,0.27-1.879,0.825
					c-0.506,0.539-0.763,1.252-0.763,2.12c0,0.879,0.257,1.599,0.763,2.138c0.51,0.543,1.124,0.807,1.879,0.807
					c0.754,0,1.369-0.264,1.879-0.807c0.506-0.539,0.763-1.259,0.763-2.138c0-0.867-0.257-1.58-0.763-2.12
					C47.537,14.713,46.922,14.443,46.18,14.443z"/>
			</g>
			<g>
				<path fill="#7E7E8C" d="M53.323,12.812h1.604v1.458H55c0.498-1.142,1.525-1.713,3.08-1.713l0.346,0.036v1.75l-0.747-0.073
					c-0.778,0-1.419,0.24-1.923,0.72C55.252,15.47,55,16.081,55,16.822v4.921h-1.677V12.812z M63.785,21.889
					c-0.729,0-1.334-0.225-1.814-0.674c-0.48-0.449-0.726-1.075-0.738-1.877v-4.994h-1.568v-1.531h1.568v-2.734h1.677v2.734h2.187
					v1.531H62.91v4.447c0,0.596,0.115,1,0.346,1.212c0.231,0.213,0.492,0.319,0.784,0.319c0.134,0,0.264-0.015,0.392-0.046
					c0.128-0.03,0.246-0.07,0.355-0.118l0.529,1.495C64.879,21.81,64.368,21.889,63.785,21.889z"/>
				<path fill="#7E7E8C" d="M63.785,22.103c-0.782,0-1.441-0.246-1.96-0.732c-0.522-0.489-0.793-1.172-0.806-2.031v-4.783h-1.568
					v-1.959h1.568V9.864h2.105v2.734h2.187v1.959h-2.187v4.233c0,0.523,0.096,0.888,0.277,1.054c0.192,0.177,0.4,0.262,0.639,0.262
					c0.117,0,0.232-0.013,0.342-0.04c0.114-0.027,0.221-0.062,0.318-0.106l0.212-0.094l0.677,1.914l-0.2,0.072
					C64.93,22.019,64.39,22.103,63.785,22.103z M59.88,14.129h1.568v5.208c0.011,0.745,0.23,1.309,0.67,1.721
					c0.443,0.415,0.988,0.617,1.667,0.617c0.467,0,0.888-0.053,1.256-0.159l-0.382-1.081c-0.058,0.019-0.117,0.035-0.177,0.049
					c-0.142,0.034-0.291,0.051-0.441,0.051c-0.346,0-0.659-0.126-0.929-0.376c-0.279-0.257-0.415-0.705-0.415-1.37v-4.662h2.187
					v-1.103h-2.187v-2.734h-1.249v2.734H59.88V14.129z M55.214,21.957h-2.105v-9.36h2.032v0.993
					c0.604-0.829,1.589-1.248,2.939-1.248l0.022,0.001L58.64,12.4v2.179l-0.972-0.095c-0.723,0.002-1.3,0.218-1.765,0.661
					c-0.464,0.442-0.69,0.99-0.69,1.677V21.957z M53.537,21.529h1.249v-4.707c0-0.799,0.277-1.467,0.823-1.987
					c0.543-0.517,1.24-0.779,2.071-0.779l0.021,0.001l0.512,0.05v-1.321l-0.143-0.015c-1.469,0.003-2.409,0.521-2.873,1.585
					l-0.056,0.129h-0.427v-1.458h-1.176V21.529z"/>
			</g>
			<g>
				<path fill="#7E7E8C" d="M71.603,22.04c-1.282,0-2.338-0.439-3.169-1.317c-0.831-0.878-1.246-1.988-1.246-3.329
					c0-1.329,0.403-2.436,1.211-3.32c0.807-0.884,1.839-1.326,3.098-1.326c1.293,0,2.323,0.418,3.089,1.255
					c0.765,0.837,1.148,2.009,1.148,3.516l-0.018,0.178h-6.854c0.024,0.854,0.309,1.543,0.854,2.065
					c0.546,0.522,1.199,0.783,1.958,0.783c1.044,0,1.863-0.522,2.457-1.567l1.46,0.712c-0.392,0.736-0.935,1.312-1.629,1.727
					C73.268,21.832,72.482,22.04,71.603,22.04z M68.987,16.343h5.002c-0.048-0.605-0.294-1.107-0.739-1.504
					c-0.445-0.397-1.041-0.596-1.789-0.596c-0.617,0-1.148,0.19-1.593,0.57C69.423,15.192,69.129,15.702,68.987,16.343z"/>
				<path fill="#7E7E8C" d="M71.603,22.249c-1.336,0-2.453-0.465-3.321-1.383c-0.865-0.914-1.303-2.082-1.303-3.473
					c0-1.377,0.426-2.541,1.265-3.461c0.845-0.925,1.939-1.394,3.252-1.394c1.349,0,2.44,0.445,3.243,1.323
					c0.798,0.873,1.203,2.103,1.203,3.657l-0.001,0.021l-0.037,0.366h-6.822c0.059,0.703,0.315,1.262,0.778,1.705
					c0.51,0.488,1.103,0.725,1.814,0.725c0.972,0,1.716-0.478,2.275-1.461l0.097-0.171l1.831,0.893l-0.102,0.191
					c-0.408,0.767-0.982,1.375-1.706,1.808C73.346,22.029,72.516,22.249,71.603,22.249z M71.497,12.956
					c-1.191,0-2.181,0.423-2.943,1.258c-0.767,0.84-1.156,1.91-1.156,3.179c0,1.28,0.4,2.351,1.189,3.185
					c0.786,0.831,1.801,1.252,3.017,1.252c0.836,0,1.593-0.2,2.251-0.593c0.597-0.357,1.083-0.847,1.445-1.457l-1.088-0.531
					c-0.623,0.998-1.476,1.503-2.538,1.503c-0.812,0-1.519-0.283-2.103-0.841c-0.585-0.559-0.894-1.303-0.919-2.21l-0.006-0.215
					h6.877c-0.005-1.432-0.373-2.556-1.093-3.344C73.71,13.356,72.723,12.956,71.497,12.956z M74.215,16.552h-5.489l0.057-0.254
					c0.152-0.683,0.471-1.236,0.95-1.645c0.482-0.411,1.064-0.62,1.729-0.62c0.797,0,1.446,0.219,1.928,0.65
					c0.484,0.433,0.756,0.986,0.808,1.644L74.215,16.552z M69.258,16.134h4.494c-0.08-0.452-0.291-0.826-0.641-1.139
					c-0.404-0.36-0.959-0.543-1.65-0.543c-0.571,0-1.048,0.17-1.457,0.52C69.656,15.268,69.406,15.658,69.258,16.134z"/>
			</g>
			<g>
				<path fill="#7E7E8C" d="M80.072,22.337V8.456h4.246c2.12,0,3.822,0.64,5.108,1.919c1.286,1.28,1.929,2.953,1.929,5.021
					c0,2.081-0.643,3.758-1.929,5.031c-1.286,1.273-2.989,1.91-5.108,1.91H80.072z M81.855,10.162v10.469h2.462
					c1.615,0,2.889-0.462,3.819-1.386c0.931-0.924,1.396-2.207,1.396-3.848c0-1.629-0.465-2.908-1.396-3.839
					c-0.931-0.931-2.204-1.396-3.819-1.396H81.855z"/>
				<path fill="#7E7E8C" d="M95.465,9.561c0,0.349-0.123,0.646-0.368,0.892c-0.246,0.246-0.543,0.368-0.892,0.368
					c-0.349,0-0.646-0.123-0.892-0.368c-0.246-0.245-0.368-0.543-0.368-0.892c0-0.349,0.123-0.646,0.368-0.892
					c0.245-0.245,0.543-0.368,0.892-0.368c0.349,0,0.646,0.123,0.892,0.368C95.342,8.915,95.465,9.212,95.465,9.561z M95.096,12.837
					v9.5h-1.784v-9.5H95.096z"/>
				<path fill="#7E7E8C" d="M101.533,26.835c-0.53,0-1.027-0.068-1.493-0.204c-0.465-0.136-0.889-0.327-1.27-0.572
					c-0.381-0.246-0.708-0.536-0.979-0.872c-0.271-0.336-0.478-0.711-0.62-1.124l1.687-0.698c0.194,0.556,0.53,1.001,1.008,1.338
					c0.478,0.336,1.034,0.504,1.667,0.504c0.969,0,1.725-0.291,2.268-0.872c0.543-0.582,0.814-1.383,0.814-2.404v-0.911h-0.078
					c-0.336,0.504-0.792,0.902-1.367,1.192c-0.575,0.291-1.199,0.436-1.871,0.436c-1.241,0-2.307-0.485-3.199-1.454
					c-0.879-0.995-1.318-2.197-1.318-3.606c0-1.409,0.439-2.604,1.318-3.587c0.892-0.982,1.958-1.473,3.199-1.473
					c0.672,0,1.296,0.145,1.871,0.436c0.575,0.291,1.031,0.688,1.367,1.192h0.078v-1.318h1.706v9.092
					c0,1.525-0.433,2.721-1.299,3.587C104.143,26.395,102.98,26.835,101.533,26.835z M101.591,21.019
					c0.879,0,1.596-0.317,2.152-0.95c0.582-0.633,0.872-1.46,0.872-2.482c0-0.995-0.291-1.816-0.872-2.462
					c-0.569-0.646-1.286-0.969-2.152-0.969c-0.853,0-1.57,0.323-2.152,0.969c-0.582,0.646-0.872,1.467-0.872,2.462
					c0,1.008,0.291,1.829,0.872,2.462C100.02,20.696,100.738,21.019,101.591,21.019z"/>
				<path fill="#7E7E8C" d="M110.799,9.561c0,0.349-0.123,0.646-0.368,0.892c-0.246,0.246-0.543,0.368-0.892,0.368
					c-0.349,0-0.646-0.123-0.892-0.368c-0.246-0.245-0.368-0.543-0.368-0.892c0-0.349,0.123-0.646,0.368-0.892
					c0.245-0.245,0.543-0.368,0.892-0.368c0.349,0,0.646,0.123,0.892,0.368C110.676,8.915,110.799,9.212,110.799,9.561z
					 M110.431,12.837v9.5h-1.784v-9.5H110.431z"/>
				<path fill="#7E7E8C" d="M116.421,22.492c-0.775,0-1.419-0.239-1.929-0.717c-0.511-0.478-0.772-1.144-0.785-1.997v-5.312h-1.667
					v-1.628h1.667V9.929h1.784v2.908h2.326v1.628h-2.326v4.73c0,0.633,0.123,1.063,0.368,1.289c0.245,0.226,0.523,0.339,0.834,0.339
					c0.142,0,0.281-0.016,0.417-0.049c0.136-0.032,0.262-0.074,0.378-0.126l0.562,1.59
					C117.585,22.408,117.042,22.492,116.421,22.492z"/>
				<path fill="#7E7E8C" d="M122.935,12.527c1.318,0,2.359,0.352,3.121,1.057c0.762,0.705,1.144,1.671,1.144,2.898v5.855h-1.706
					v-1.318h-0.078c-0.737,1.086-1.719,1.629-2.947,1.629c-1.047,0-1.923-0.31-2.627-0.931c-0.705-0.62-1.057-1.396-1.057-2.326
					c0-0.982,0.371-1.764,1.115-2.346c0.743-0.582,1.735-0.872,2.976-0.872c1.06,0,1.932,0.194,2.617,0.582v-0.407
					c0-0.62-0.246-1.147-0.737-1.58c-0.491-0.433-1.066-0.649-1.725-0.649c-0.995,0-1.784,0.42-2.365,1.26l-1.57-0.989
					C119.962,13.148,121.242,12.527,122.935,12.527z M120.628,19.429c0,0.465,0.197,0.853,0.591,1.163
					c0.394,0.31,0.856,0.465,1.386,0.465c0.749,0,1.418-0.278,2.007-0.834c0.588-0.556,0.882-1.208,0.882-1.958
					c-0.556-0.439-1.331-0.659-2.326-0.659c-0.724,0-1.328,0.174-1.813,0.523C120.871,18.479,120.628,18.912,120.628,19.429z"/>
				<path fill="#7E7E8C" d="M131,8.456v13.881h-1.784V8.456H131z"/>
			</g>
		</g>
		<g>
			<g>
				<path fill="#7E7E8C" d="M5.356,10.226l0.061,8.17L0,21.718V7.676L12.19,0l12.226,7.676v14.055l-5.416-3.327v-8.138l-6.791-4.01
					L5.356,10.226z"/>
			</g>
		</g>
		<g>
			<polygon fill="#7E7E8C" points="0,21.718 12.208,14.232 24.416,21.731 18.999,24.65 12.231,20.484 5.416,24.65 			"/>
		</g>
		<g opacity="0.4">
			<g>
				<defs>
					<path id="SVGID_3_" d="M12.191,10.114"/>
				</defs>
				<use xlink:href="#SVGID_3_"  overflow="visible" fill="#7E7E8C"/>
				<clipPath id="SVGID_4_">
					<use xlink:href="#SVGID_3_"  overflow="visible"/>
				</clipPath>
				<path clip-path="url(#SVGID_4_)" fill="#7E7E8C" d="M12.191,10.114L12.191,10.114L12.191,10.114z"/>
				<path clip-path="url(#SVGID_4_)" fill="#7E7E8C" d="M12.191,10.114L12.191,10.114L12.191,10.114z"/>
				<path clip-path="url(#SVGID_4_)" fill="#7E7E8C" d="M12.191,10.114L12.191,10.114L12.191,10.114z"/>
			</g>
		</g>
	</g>
	<g>
		<g>
			<g>
				<defs>
					<path id="SVGID_5_" d="M12.191,10.114"/>
				</defs>
				<clipPath id="SVGID_6_">
					<use xlink:href="#SVGID_5_"  overflow="visible"/>
				</clipPath>
			</g>
		</g>
	</g>
</g>
</svg>
