<?xml version="1.0" encoding="utf-8"?>
<!-- Generator: Adobe Illustrator 21.0.0, SVG Export Plug-In . SVG Version: 6.00 Build 0)  -->
<svg version="1.1" id="Layer_1" xmlns="http://www.w3.org/2000/svg" xmlns:xlink="http://www.w3.org/1999/xlink" x="0px" y="0px"
	 viewBox="0 0 211 77" style="enable-background:new 0 0 211 77;" xml:space="preserve">
<style type="text/css">
	.st0{fill:#FFFFFF;}
	.st1{opacity:0.4;}
	.st2{fill:#080509;}
</style>
<g>
	<path class="st0" d="M78.1,66.1h-3.9v-7H75v6.2h3L78.1,66.1z"/>
	<path class="st0" d="M80.2,66.1h-1l2.6-7h1l2.6,7h-1l-0.7-1.9h-3L80.2,66.1z M82.3,60.2l-1.1,3.2h2.3L82.3,60.2L82.3,60.2z"/>
	<path class="st0" d="M88.9,59.9v6.2H88v-6.2h-2v-0.9h4.8v0.9H88.9z"/>
	<path class="st0" d="M93.5,66.1h-0.9v-7h0.9V66.1z"/>
	<path class="st0" d="M96.6,66.1h-0.9v-7h1.1l3.4,5.5h0l0-1.4v-4.1h0.9v7h-0.9l-3.6-5.7h0l0,1.4V66.1z"/>
	<path class="st0" d="M110,62.6c0,1-0.3,1.9-1,2.6c-1.4,1.4-3.7,1.4-5.1,0c-1.4-1.5-1.4-3.8,0-5.2c1.4-1.4,3.7-1.4,5.1,0
		c0,0,0,0,0,0C109.7,60.7,110.1,61.6,110,62.6z M103.7,62.6c0,0.7,0.3,1.5,0.8,2c0.5,0.5,1.2,0.8,1.9,0.8c0.7,0,1.4-0.3,1.9-0.8
		c1-1.1,1-2.9,0-4c-0.5-0.5-1.2-0.8-1.9-0.8c-0.7,0-1.4,0.3-1.9,0.8C104,61.1,103.7,61.8,103.7,62.6L103.7,62.6z"/>
	<path class="st0" d="M112.1,66.1h-1l2.6-7h1l2.6,7h-1l-0.7-1.9h-2.9L112.1,66.1z M114.2,60.2l-1.1,3.2h2.3L114.2,60.2L114.2,60.2z"
		/>
	<path class="st0" d="M119.9,66.1H119v-7h0.9l2.4,4.3h0l2.4-4.3h0.9v7h-0.9v-4.2l0-1.2h0l-2.2,3.9h-0.5l-2.2-3.9h0l0,1.2L119.9,66.1
		z"/>
	<path class="st0" d="M132.1,59.1v0.9h-3.2v2.2h2.9V63h-2.9v2.2h3.2v0.9H128v-7H132.1z"/>
	<path class="st0" d="M135,66.1h-0.9v-7h2.4c0.6,0,1.1,0.2,1.6,0.6c0.8,0.7,0.9,2,0.2,2.8c-0.3,0.4-0.7,0.6-1.2,0.7l0,0l2,2.9v0
		h-1.1l-1.9-2.8h-1V66.1z M135,59.9v2.5h1.5c0.3,0,0.7-0.1,0.9-0.4c0.2-0.2,0.4-0.6,0.4-0.9c0-0.3-0.1-0.6-0.4-0.9
		c-0.2-0.2-0.6-0.4-0.9-0.4H135z"/>
	<path class="st0" d="M141.4,66.1h-0.9v-7h0.9V66.1z"/>
	<path class="st0" d="M146.8,66.2c-2,0-3.7-1.7-3.6-3.8c0-0.9,0.4-1.8,1-2.5c0.7-0.7,1.6-1.1,2.6-1.1c1,0,1.9,0.4,2.6,1.1l-0.6,0.6
		c-0.5-0.6-1.2-0.9-1.9-0.9c-0.7,0-1.4,0.3-2,0.8c-1,1.1-1,2.9,0,4c0.5,0.5,1.2,0.8,2,0.8c0.8,0,1.6-0.4,2.1-1l0.7,0.6
		c-0.3,0.4-0.8,0.7-1.2,0.9C147.9,66.1,147.4,66.2,146.8,66.2z"/>
	<path class="st0" d="M151.9,66.1h-1l2.6-7h1l2.6,7h-1l-0.7-1.9h-3L151.9,66.1z M154,60.2l-1.1,3.2h2.3L154,60.2L154,60.2z"/>
	<g>
		<g>
			<path class="st0" d="M49,45.8h-2.7v-21h3.3l10.2,16.4h0.1l-0.1-4.1V24.8h2.7v21h-2.8L49,28.6h-0.1l0.1,4.1V45.8z"/>
			<path class="st0" d="M62.8,46.1h-3.4L49.2,29.7l0.1,3v13.4h-3.4V24.4h3.8L59.5,40l-0.1-3V24.4h3.4V46.1z M59.8,45.4h2.3V25.1h-2
				v12l0.1,4.4h-0.7L49.3,25.1h-2.8v20.3h2V32.7l-0.1-4.4h0.7C49.1,28.3,59.8,45.4,59.8,45.4z M67.1,38.8c0-2.2,0.7-4,2-5.4
				c1.4-1.4,3.1-2.1,5.2-2.1s3.8,0.7,5.2,2.1c1.4,1.4,2.1,3.2,2.1,5.4c0,2.2-0.7,4-2.1,5.4c-1.4,1.4-3.1,2.1-5.2,2.1
				s-3.8-0.7-5.2-2.1C67.8,42.7,67.1,40.9,67.1,38.8z M69.8,38.8c0,1.5,0.4,2.7,1.3,3.7c0.9,0.9,2,1.4,3.3,1.4s2.4-0.5,3.3-1.4
				c0.9-0.9,1.3-2.2,1.3-3.7c0-1.5-0.4-2.7-1.3-3.6c-0.9-1-2-1.4-3.3-1.4c-1.3,0-2.4,0.5-3.3,1.4C70.2,36.1,69.8,37.3,69.8,38.8z"/>
			<path class="st0" d="M74.4,46.6c-2.2,0-4-0.7-5.4-2.2c-1.4-1.5-2.1-3.4-2.1-5.6c0-2.2,0.7-4.1,2.1-5.6c1.4-1.5,3.3-2.2,5.4-2.2
				c2.2,0,4,0.8,5.4,2.2c1.4,1.5,2.2,3.4,2.2,5.6c0,2.3-0.7,4.1-2.2,5.6C78.4,45.8,76.6,46.6,74.4,46.6z M74.4,31.6
				c-2,0-3.6,0.7-5,2c-1.3,1.3-1.9,3.1-1.9,5.1s0.7,3.8,1.9,5.1c1.3,1.3,3,2,5,2c2,0,3.6-0.7,4.9-2c1.3-1.3,2-3.1,2-5.1
				c0-2.1-0.7-3.8-2-5.1C78,32.3,76.4,31.6,74.4,31.6z M74.4,44.2c-1.4,0-2.6-0.5-3.5-1.5c-0.9-1-1.4-2.3-1.4-3.9
				c0-1.6,0.5-2.9,1.4-3.9c1-1,2.1-1.5,3.5-1.5c1.4,0,2.6,0.5,3.5,1.5c0.9,1,1.4,2.3,1.4,3.9c0,1.6-0.5,2.9-1.4,3.9
				C77,43.7,75.8,44.2,74.4,44.2z M74.4,34c-1.2,0-2.2,0.4-3,1.3c-0.8,0.9-1.2,2-1.2,3.4c0,1.4,0.4,2.6,1.2,3.4
				c0.8,0.9,1.8,1.3,3,1.3c1.2,0,2.2-0.4,3-1.3c0.8-0.9,1.2-2,1.2-3.4c0-1.4-0.4-2.5-1.2-3.4C76.6,34.5,75.6,34,74.4,34z M85.9,31.4
				h2.6v2.3h0.1c0.8-1.8,2.5-2.8,5-2.8l0.6,0.1v2.8l-1.2-0.1c-1.3,0-2.3,0.4-3.1,1.2c-0.8,0.8-1.2,1.8-1.2,3v7.9h-2.7
				C85.9,45.8,85.9,31.4,85.9,31.4z M102.7,46c-1.2,0-2.1-0.4-2.9-1.1c-0.8-0.7-1.2-1.7-1.2-3v-8h-2.5v-2.5h2.5V27h2.7v4.4h3.5v2.5
				h-3.5V41c0,1,0.2,1.6,0.6,2c0.4,0.3,0.8,0.5,1.3,0.5c0.2,0,0.4,0,0.6-0.1c0.2,0,0.4-0.1,0.6-0.2l0.9,2.4
				C104.5,45.9,103.7,46,102.7,46L102.7,46z"/>
			<path class="st0" d="M102.7,46.4c-1.3,0-2.3-0.4-3.2-1.2c-0.8-0.8-1.3-1.9-1.3-3.3v-7.7h-2.5V31h2.5v-4.4h3.4V31h3.5v3.2h-3.5V41
				c0,0.8,0.2,1.4,0.4,1.7c0.3,0.3,0.6,0.4,1,0.4c0.2,0,0.4,0,0.6-0.1c0.2,0,0.3-0.1,0.5-0.2l0.3-0.2l1.1,3.1l-0.3,0.1
				C104.6,46.2,103.7,46.4,102.7,46.4z M96.4,33.5H99v8.4c0,1.2,0.4,2.1,1.1,2.8c0.7,0.7,1.6,1,2.7,1c0.8,0,1.4-0.1,2-0.3l-0.6-1.7
				c-0.1,0-0.2,0.1-0.3,0.1c-0.2,0.1-0.5,0.1-0.7,0.1c-0.6,0-1.1-0.2-1.5-0.6c-0.4-0.4-0.7-1.1-0.7-2.2v-7.5h3.5v-1.8H101v-4.4h-2
				v4.4h-2.5C96.4,31.7,96.4,33.5,96.4,33.5z M88.9,46.1h-3.4V31h3.3v1.6c1-1.3,2.6-2,4.7-2l0,0l0.9,0.1v3.5l-1.6-0.2
				c-1.2,0-2.1,0.4-2.8,1.1c-0.7,0.7-1.1,1.6-1.1,2.7C88.9,37.8,88.9,46.1,88.9,46.1z M86.2,45.4h2v-7.6c0-1.3,0.4-2.4,1.3-3.2
				c0.9-0.8,2-1.3,3.3-1.3l0,0l0.8,0.1v-2.1l-0.2,0c-2.4,0-3.9,0.8-4.6,2.6l-0.1,0.2h-0.7v-2.3h-1.9L86.2,45.4L86.2,45.4z
				 M115.3,46.3c-2.1,0-3.8-0.7-5.1-2.1c-1.3-1.4-2-3.2-2-5.4c0-2.1,0.7-3.9,1.9-5.3c1.3-1.4,3-2.1,5-2.1c2.1,0,3.7,0.7,5,2
				c1.2,1.3,1.8,3.2,1.8,5.7l0,0.3h-11c0,1.4,0.5,2.5,1.4,3.3s1.9,1.3,3.2,1.3c1.7,0,3-0.8,4-2.5l2.4,1.1c-0.6,1.2-1.5,2.1-2.6,2.8
				C118,45.9,116.7,46.3,115.3,46.3z M111.1,37.1h8.1c-0.1-1-0.5-1.8-1.2-2.4c-0.7-0.6-1.7-1-2.9-1c-1,0-1.8,0.3-2.6,0.9
				C111.8,35.2,111.3,36,111.1,37.1z"/>
			<path class="st0" d="M115.3,46.6c-2.2,0-4-0.8-5.3-2.2c-1.4-1.5-2.1-3.4-2.1-5.6c0-2.2,0.7-4.1,2-5.6c1.4-1.5,3.1-2.2,5.2-2.2
				c2.2,0,3.9,0.7,5.2,2.1c1.3,1.4,1.9,3.4,1.9,5.9l0,0l-0.1,0.6h-11c0.1,1.1,0.5,2,1.3,2.7c0.8,0.8,1.8,1.2,2.9,1.2
				c1.6,0,2.8-0.8,3.7-2.4l0.2-0.3l2.9,1.4l-0.2,0.3c-0.6,1.2-1.6,2.2-2.7,2.9C118.1,46.2,116.8,46.6,115.3,46.6z M115.2,31.6
				c-1.9,0-3.5,0.7-4.7,2c-1.2,1.4-1.9,3.1-1.9,5.1c0,2.1,0.6,3.8,1.9,5.1c1.3,1.3,2.9,2,4.9,2c1.3,0,2.6-0.3,3.6-1
				c1-0.6,1.8-1.4,2.3-2.3l-1.8-0.9c-1,1.6-2.4,2.4-4.1,2.4c-1.3,0-2.4-0.5-3.4-1.4c-0.9-0.9-1.4-2.1-1.5-3.6l0-0.3h11.1
				c0-2.3-0.6-4.1-1.8-5.4C118.7,32.3,117.1,31.6,115.2,31.6z M119.5,37.4h-8.8l0.1-0.4c0.2-1.1,0.8-2,1.5-2.6c0.8-0.7,1.7-1,2.8-1
				c1.3,0,2.3,0.4,3.1,1c0.8,0.7,1.2,1.6,1.3,2.6C119.5,37.1,119.5,37.4,119.5,37.4z M111.6,36.7h7.2c-0.1-0.7-0.5-1.4-1-1.8
				c-0.7-0.6-1.5-0.9-2.7-0.9c-0.9,0-1.7,0.3-2.3,0.8C112.2,35.3,111.8,36,111.6,36.7z M129,46.7V24.4h6.8c3.4,0,6.2,1,8.2,3.1
				c2.1,2.1,3.1,4.8,3.1,8.1c0,3.4-1,6.1-3.1,8.1c-2.1,2.1-4.8,3.1-8.2,3.1L129,46.7L129,46.7z M131.8,27.1V44h4
				c2.6,0,4.7-0.7,6.2-2.2c1.5-1.5,2.2-3.6,2.2-6.2c0-2.6-0.7-4.7-2.2-6.2c-1.5-1.5-3.5-2.2-6.2-2.2H131.8z M153.8,26.2
				c0,0.6-0.2,1-0.6,1.4c-0.4,0.4-0.9,0.6-1.4,0.6c-0.5,0-1.1-0.2-1.4-0.6c-0.4-0.4-0.6-0.9-0.6-1.4c0-0.6,0.2-1,0.6-1.4
				c0.4-0.4,0.9-0.6,1.4-0.6c0.6,0,1,0.2,1.4,0.6S153.8,25.6,153.8,26.2z M153.2,31.4v15.3h-2.9V31.4H153.2z M163.5,54
				c-0.8,0-1.6-0.1-2.4-0.3c-0.7-0.2-1.4-0.5-2-0.9c-0.6-0.4-1.1-0.9-1.6-1.4c-0.4-0.5-0.8-1.2-1-1.8l2.7-1.1
				c0.3,0.9,0.9,1.6,1.6,2.2c0.8,0.5,1.7,0.8,2.7,0.8c1.6,0,2.8-0.5,3.7-1.4s1.3-2.2,1.3-3.9v-1.5h-0.1c-0.5,0.8-1.3,1.5-2.2,1.9
				c-0.9,0.5-2,0.7-3,0.7c-2,0-3.7-0.8-5.2-2.3c-1.4-1.6-2.1-3.5-2.1-5.8c0-2.3,0.7-4.2,2.1-5.8c1.4-1.6,3.2-2.4,5.2-2.4
				c1.1,0,2.1,0.2,3,0.7c0.9,0.5,1.7,1.1,2.2,1.9h0.1v-2.1h2.7v14.6c0,2.5-0.7,4.4-2.1,5.8C167.7,53.3,165.9,54,163.5,54z
				 M163.6,44.6c1.4,0,2.6-0.5,3.5-1.5c0.9-1,1.4-2.4,1.4-4c0-1.6-0.5-2.9-1.4-4c-0.9-1-2.1-1.6-3.5-1.6c-1.4,0-2.5,0.5-3.5,1.6
				c-0.9,1-1.4,2.4-1.4,4c0,1.6,0.5,2.9,1.4,4C161.1,44.1,162.3,44.6,163.6,44.6z M178.5,26.2c0,0.6-0.2,1-0.6,1.4
				c-0.4,0.4-0.9,0.6-1.4,0.6c-0.5,0-1.1-0.2-1.4-0.6c-0.4-0.4-0.6-0.9-0.6-1.4c0-0.6,0.2-1,0.6-1.4c0.4-0.4,0.9-0.6,1.4-0.6
				c0.6,0,1,0.2,1.4,0.6S178.5,25.6,178.5,26.2z M177.9,31.4v15.3H175V31.4C175,31.4,177.9,31.4,177.9,31.4z M187.5,47
				c-1.2,0-2.3-0.4-3.1-1.2c-0.8-0.8-1.2-1.8-1.3-3.2v-8.6h-2.7v-2.6h2.7v-4.7h2.9v4.7h3.7v2.6H186v7.6c0,1,0.2,1.7,0.6,2.1
				c0.4,0.4,0.8,0.5,1.3,0.5c0.2,0,0.5,0,0.7-0.1c0.2,0,0.4-0.1,0.6-0.2l0.9,2.6C189.4,46.8,188.5,47,187.5,47L187.5,47z M198,30.9
				c2.1,0,3.8,0.6,5,1.7c1.2,1.1,1.8,2.7,1.8,4.7v9.4h-2.7v-2.1H202c-1.2,1.7-2.8,2.6-4.7,2.6c-1.7,0-3.1-0.5-4.2-1.5
				c-1.1-1-1.7-2.2-1.7-3.7c0-1.6,0.6-2.8,1.8-3.8c1.2-0.9,2.8-1.4,4.8-1.4c1.7,0,3.1,0.3,4.2,0.9v-0.7c0-1-0.4-1.8-1.2-2.5
				c-0.8-0.7-1.8-1.1-2.8-1c-1.6,0-2.9,0.7-3.8,2l-2.5-1.6C193.2,31.9,195.3,30.9,198,30.9L198,30.9z M194.3,42c0,0.7,0.3,1.4,1,1.9
				s1.4,0.7,2.2,0.7c1.2,0,2.3-0.4,3.2-1.3c0.9-0.9,1.4-1.9,1.4-3.2c-0.9-0.7-2.1-1.1-3.7-1.1c-1.2,0-2.1,0.3-2.9,0.8
				C194.7,40.5,194.3,41.2,194.3,42z M211,24.4v22.4h-2.9V24.4H211z"/>
		</g>
		<path class="st0" d="M8.6,27.2l0.1,13.2L0,45.7V23.1l19.6-12.4l19.7,12.4v22.6l-8.7-5.4V27.3l-10.9-6.5
			C19.7,20.8,8.6,27.2,8.6,27.2z"/>
		<path class="st0" d="M0,45.7l19.7-12.1l19.7,12.1l-8.7,4.7l-10.9-6.7l-11,6.7L0,45.7z"/>
		<g class="st1">
			<path class="st2" d="M19.6,27"/>
		</g>
	</g>
</g>
</svg>
