<svg xmlns="http://www.w3.org/2000/svg" viewBox="0 0 22.41 21.6"><defs><style>.cls-1{fill:#fff;}</style></defs><title>Recurso 9</title><g id="Capa_2" data-name="Capa 2"><g id="Capa_1-2" data-name="Capa 1"><path class="cls-1" d="M6.13,21.6A3,3,0,0,1,4.37,21a3,3,0,0,1-1.08-3.34l1.06-3.27a.91.91,0,0,0-.33-1l-2.78-2A2.94,2.94,0,0,1,.15,8,3,3,0,0,1,3,6H6.43a.9.9,0,0,0,.87-.63L8.36,2.07a3,3,0,0,1,5.69,0l1.06,3.26A.9.9,0,0,0,16,6h3.43a3,3,0,0,1,1.76,5.41l-2.78,2a.9.9,0,0,0-.33,1l1.06,3.27A3,3,0,0,1,14.52,21l-2.78-2a.92.92,0,0,0-1.07,0L7.89,21A3,3,0,0,1,6.13,21.6Zm5.07-4.85a3,3,0,0,1,1.76.57l2.78,2a.91.91,0,0,0,1.4-1l-1.06-3.27a3,3,0,0,1,1.09-3.34l2.78-2a.89.89,0,0,0,.33-1A.88.88,0,0,0,19.41,8H16A3,3,0,0,1,13.13,6L12.07,2.71h0a.91.91,0,0,0-1.73,0L9.28,6A3,3,0,0,1,6.43,8H3a.91.91,0,0,0-.54,1.65l2.78,2a3,3,0,0,1,1.08,3.34L5.26,18.32a.91.91,0,0,0,1.41,1l2.78-2A3,3,0,0,1,11.2,16.75Z"/></g></g></svg>