<svg xmlns="http://www.w3.org/2000/svg" xmlns:xlink="http://www.w3.org/1999/xlink" viewBox="0 0 21.09 21.36"><defs><style>.cls-1{fill:none;}.cls-2{fill:#fff;}.cls-3{clip-path:url(#clip-path);}.cls-4{fill:#fcfcfc;}.cls-5{fill:#fafafa;}.cls-6{fill:#f8f8f8;}.cls-7{fill:#f7f7f6;}.cls-8{fill:#f5f5f5;}.cls-9{fill:#f3f3f3;}.cls-10{fill:#f1f1f1;}.cls-11{fill:#f0f0ef;}.cls-12{fill:#eee;}.cls-13{fill:#eeeeed;}.cls-14{fill:#ececec;}.cls-15{fill:#eaeaea;}.cls-16{fill:#e9e9e9;}.cls-17{fill:#e7e7e7;}.cls-18{fill:#e6e6e6;}.cls-19{fill:#e5e5e4;}.cls-20{fill:#e3e3e3;}.cls-21{fill:#e2e2e1;}.cls-22{fill:#e1e1e0;}.cls-23{fill:#dfdfdf;}.cls-24{fill:#dedede;}.cls-25{fill:#dddddc;}.cls-26{fill:#dcdcdb;}.cls-27{fill:#dbdbda;}.cls-28{fill:#dadad9;}.cls-29{fill:#d9d9d8;}.cls-30{fill:#d8d8d7;}.cls-31{fill:#d7d7d6;}.cls-32{fill:#d6d6d5;}.cls-33{fill:#d5d5d4;}.cls-34{fill:#d4d4d3;}.cls-35{fill:#d3d3d2;}.cls-36{fill:#d2d2d1;}.cls-37{fill:#d1d1d1;}.cls-38{fill:#d1d1d0;}.cls-39{fill:#d0d0cf;}.cls-40{fill:#cfcfce;}.cls-41{fill:#cececd;}.cls-42{fill:#cdcdcc;}.cls-43{fill:#cccccb;}.cls-44{fill:#cbcbca;}.cls-45{fill:#cacac9;}</style><clipPath id="clip-path"><path class="cls-1" d="M20.74,4.34a4,4,0,1,1-4-4A4,4,0,0,1,20.74,4.34Z"/></clipPath></defs><title>Recurso 10</title><g id="Capa_2" data-name="Capa 2"><g id="Capa_1-2" data-name="Capa 1"><path class="cls-2" d="M17.69,21.36H1a1,1,0,0,1-1-1V2.78a1,1,0,0,1,1-1h9.1a1,1,0,1,1,0,2.07H2.08V19.28H16.65V11.55a1,1,0,1,1,2.08,0v8.77A1,1,0,0,1,17.69,21.36Z"/><g class="cls-3"><rect class="cls-2" x="12.75" y="0.35" width="7.99" height="7.99"/><path class="cls-2" d="M21,9H12.65V9.7c0-1.24,1.85-2.26,4.15-2.28S21,8.39,21,9.63Z"/><path class="cls-4" d="M20.92,9H12.73V9.7c0-1.22,1.81-2.22,4.08-2.24s4.1,1,4.11,2.17Z"/><path class="cls-5" d="M20.84,9h-8V9.7c0-1.2,1.79-2.18,4-2.2s4,.94,4,2.13Z"/><path class="cls-6" d="M20.76,9H12.88v.66c0-1.16,1.75-2.13,3.93-2.14s4,.91,4,2.08Z"/><path class="cls-7" d="M20.69,9H13v.66c0-1.14,1.71-2.09,3.85-2.1s3.87.9,3.88,2Z"/><path class="cls-8" d="M20.61,9H13v.66c0-1.12,1.68-2,3.78-2.06s3.79.88,3.8,2Z"/><path class="cls-9" d="M20.53,9H13.11v.66c0-1.1,1.65-2,3.7-2s3.71.86,3.72,2Z"/><path class="cls-10" d="M20.45,9H13.19v.66c0-1.08,1.61-2,3.62-2s3.64.85,3.64,1.92Z"/><path class="cls-11" d="M20.38,9H13.27v.66c0-1,1.57-1.92,3.54-1.94s3.56.83,3.57,1.89Z"/><path class="cls-12" d="M20.3,9h-7v.66c0-1,1.55-1.88,3.47-1.89s3.48.8,3.49,1.84Z"/><path class="cls-13" d="M20.22,9h-6.8v.66c0-1,1.51-1.84,3.39-1.85s3.41.79,3.41,1.8Z"/><path class="cls-14" d="M20.15,9H13.5v.66c0-1,1.47-1.8,3.31-1.81s3.33.77,3.34,1.76Z"/><path class="cls-15" d="M20.07,9H13.58v.66c0-1,1.44-1.76,3.23-1.77s3.25.76,3.26,1.72Z"/><path class="cls-16" d="M20,9H13.65v.66c0-.94,1.41-1.71,3.16-1.73S20,8.7,20,9.64Z"/><path class="cls-17" d="M19.91,9H13.73v.66C13.72,8.77,15.1,8,16.81,8s3.1.72,3.1,1.64Z"/><path class="cls-18" d="M19.84,9h-6v.66c0-.9,1.33-1.63,3-1.65s3,.71,3,1.6Z"/><path class="cls-19" d="M19.76,9H13.89v.66c0-.87,1.3-1.59,2.92-1.6s2.94.68,3,1.55Z"/><path class="cls-20" d="M19.68,9H14v.66c0-.85,1.27-1.55,2.85-1.56s2.87.66,2.87,1.51Z"/><path class="cls-21" d="M19.61,9H14v.66c0-.83,1.23-1.51,2.77-1.52s2.79.65,2.8,1.47Z"/><path class="cls-22" d="M19.53,9H14.12v.65c0-.8,1.2-1.46,2.69-1.47s2.71.63,2.72,1.43Z"/><path class="cls-23" d="M19.45,9H14.19v.65c0-.78,1.17-1.42,2.62-1.43s2.63.61,2.64,1.39Z"/><path class="cls-24" d="M19.37,9h-5.1v.65c0-.75,1.13-1.38,2.54-1.39s2.56.6,2.56,1.35Z"/><path class="cls-25" d="M19.3,9h-5v.65c0-.73,1.1-1.33,2.46-1.34s2.48.57,2.49,1.3Z"/><path class="cls-26" d="M19.22,9H14.43v.65c0-.71,1.06-1.29,2.38-1.3s2.4.55,2.41,1.26Z"/><path class="cls-27" d="M19.14,9H14.5v.65c0-.69,1-1.25,2.31-1.26s2.33.54,2.33,1.23Z"/><path class="cls-28" d="M19.06,9H14.58v.65c0-.66,1-1.21,2.23-1.22s2.25.52,2.25,1.19Z"/><path class="cls-29" d="M19,9H14.66v.65c0-.64,1-1.17,2.15-1.18S19,9,19,9.65Z"/><path class="cls-30" d="M18.91,9H14.74v.65c0-.62.92-1.13,2.07-1.14s2.09.49,2.1,1.11Z"/><path class="cls-31" d="M18.83,9h-4v.65c0-.6.89-1.09,2-1.1s2,.47,2,1.07Z"/><path class="cls-32" d="M18.75,9H14.89v.65c0-.57.86-1,1.92-1s1.94.44,1.94,1Z"/><path class="cls-33" d="M18.68,9H15v.65c0-.55.82-1,1.84-1s1.86.43,1.87,1Z"/><path class="cls-34" d="M18.6,9H15v.65c0-.53.79-1,1.77-1s1.79.41,1.79.94Z"/><path class="cls-35" d="M18.52,9h-3.4v.65c0-.51.76-.92,1.69-.93s1.71.4,1.71.9Z"/><path class="cls-36" d="M18.45,9H15.2v.65c0-.49.72-.88,1.62-.89s1.62.38,1.63.86Z"/><path class="cls-37" d="M18.37,9H15.28v.65c0-.46.68-.84,1.54-.85s1.54.36,1.55.82Z"/><path class="cls-38" d="M18.29,9H15.35v.65c0-.44.65-.8,1.47-.81s1.47.35,1.47.78Z"/><path class="cls-39" d="M18.21,9H15.43v.64c0-.41.62-.75,1.39-.75s1.39.32,1.39.73Z"/><path class="cls-40" d="M18.14,9H15.51v.64c0-.39.58-.71,1.31-.71s1.31.3,1.32.69Z"/><path class="cls-40" d="M18.06,9H15.59v.64c0-.36.54-.67,1.23-.67s1.24.29,1.24.65Z"/><path class="cls-41" d="M18,9h0Z"/><path class="cls-41" d="M17.9,9h0Z"/><path class="cls-42" d="M17.83,9h0Z"/><path class="cls-42" d="M17.75,9h0Z"/><path class="cls-43" d="M17.67,9h0Z"/><path class="cls-43" d="M17.6,9h0Z"/><path class="cls-44" d="M17.52,9h0Z"/><path class="cls-44" d="M17.44,9h0Z"/><path class="cls-44" d="M17.36,9h0Z"/><path class="cls-44" d="M17.29,9h0Z"/><path class="cls-45" d="M17.21,9h0Z"/><path class="cls-45" d="M17.13,9h0Z"/><path class="cls-45" d="M17.05,9h0Z"/><path class="cls-45" d="M17,9h0Z"/><path class="cls-45" d="M16.9,9h0Z"/></g><path class="cls-2" d="M16.75,8.68a4.34,4.34,0,1,1,4.34-4.34A4.34,4.34,0,0,1,16.75,8.68Zm0-8A3.65,3.65,0,1,0,20.4,4.34,3.66,3.66,0,0,0,16.75.69Z"/></g></g></svg>