<svg xmlns="http://www.w3.org/2000/svg" viewBox="0 0 24.86 28.98"><defs><style>.cls-1{fill:#fff;}</style></defs><title>Recurso 12</title><g id="Capa_2" data-name="Capa 2"><g id="Capa_1-2" data-name="Capa 1"><path class="cls-1" d="M12.43,29a19.63,19.63,0,0,1-12-4.08A1,1,0,0,1,0,24.08V21.86a9.68,9.68,0,0,1,6.58-9.1,7.72,7.72,0,1,1,11.7,0,9.68,9.68,0,0,1,6.58,9.1v2.22a1,1,0,0,1-.41.82A19.63,19.63,0,0,1,12.43,29ZM2.08,23.55a17.62,17.62,0,0,0,20.7,0V21.86a7.56,7.56,0,0,0-6.84-7.48,1,1,0,0,1-.47-1.91,5.64,5.64,0,1,0-6.08,0,1,1,0,0,1-.47,1.91,7.56,7.56,0,0,0-6.84,7.48Zm21.74.53h0Z"/></g></g></svg>