<svg xmlns="http://www.w3.org/2000/svg" viewBox="0 0 19.75 22.96"><defs><style>.cls-1{fill:#fff;}</style></defs><title>Recurso 8</title><g id="Capa_2" data-name="Capa 2"><g id="Capa_1-2" data-name="Capa 1"><path class="cls-1" d="M18.71,23H12.42a1,1,0,0,1-1-1V16.54H8.61v5.38a1,1,0,0,1-1,1H1a1,1,0,0,1-1-1V9.09a1,1,0,0,1,.34-.77l8.84-8a1,1,0,0,1,1.4,0l8.83,8.05a1,1,0,0,1,.34.77V21.92A1,1,0,0,1,18.71,23Zm-5.25-2.08h4.21V9.55L9.88,2.44,2.08,9.55V20.88H6.54V15.51a1,1,0,0,1,1-1h4.84a1,1,0,0,1,1,1Z"/></g></g></svg>