<svg xmlns="http://www.w3.org/2000/svg" xmlns:xlink="http://www.w3.org/1999/xlink" viewBox="0 0 989.76 861.31"><defs><style>.cls-1{fill:#edbba0;}.cls-2{fill:#c7dbf5;}.cls-3{fill:#84aad7;}.cls-4{fill:#344b7e;}.cls-5{fill:#dae6f5;}.cls-6{fill:#fff;}.cls-7{fill:#6cbeca;}.cls-8{fill:#589bad;}.cls-9{fill:#cedded;}.cls-10{fill:#279aff;}.cls-11{fill:#688bcf;}.cls-12{fill:#f2d279;}.cls-13{fill:#27222e;}.cls-14{fill:#20375e;}.cls-15{fill:#182543;}.cls-16{fill:#ebb197;}.cls-17{fill:#161616;}.cls-18{fill:#1e3248;}.cls-19{fill:#e5a7a8;}.cls-20{fill:#e9c66f;}.cls-21{clip-path:url(#clip-path);}.cls-22{fill:#98b6ee;}.cls-23{clip-path:url(#clip-path-2);}</style><clipPath id="clip-path"><path class="cls-1" d="M405.43,31.06a18,18,0,1,0,2.33-25.31A18,18,0,0,0,405.43,31.06Z"/></clipPath><clipPath id="clip-path-2"><path class="cls-1" d="M66.43,607.31a18.13,18.13,0,1,1-14.92-20.86A18.13,18.13,0,0,1,66.43,607.31Z"/></clipPath></defs><title>Recurso 2</title><g id="Capa_2" data-name="Capa 2"><g id="Capa_1-2" data-name="Capa 1"><path class="cls-2" d="M85,573.66H808.31a0,0,0,0,1,0,0V635.8a10.94,10.94,0,0,1-10.94,10.94H95.89A10.94,10.94,0,0,1,85,635.8V573.66A0,0,0,0,1,85,573.66Z"/><rect class="cls-3" x="373.84" y="646.74" width="148.45" height="63.95"/><path class="cls-4" d="M95.06,152.13H798.2a10.11,10.11,0,0,1,10.11,10.11v412.6a0,0,0,0,1,0,0H85a0,0,0,0,1,0,0V162.24A10.11,10.11,0,0,1,95.06,152.13Z"/><rect class="cls-5" x="114.34" y="182.54" width="669.11" height="366.2"/><path class="cls-6" d="M463,606.93a16.34,16.34,0,1,1-16.34-16.34A16.34,16.34,0,0,1,463,606.93Z"/><path class="cls-6" d="M416.25,215.89H739.32A3.07,3.07,0,0,1,742.4,219V508.84a3.07,3.07,0,0,1-3.07,3.07H416.25a3.07,3.07,0,0,1-3.07-3.07V219A3.08,3.08,0,0,1,416.25,215.89Z"/><rect class="cls-6" x="158.74" y="352.28" width="220.58" height="159.64" rx="3.07" ry="3.07"/><path class="cls-7" d="M889.83,430.51h-.09c10.82-11.31,5.73-23.81,3.77-27.61v0c-.38-.73-.65-1.17-.65-1.17l.1,0a45.48,45.48,0,0,1,8.41-52.83c7.59-10,1.85-23.39,1.85-23.39h0a32.26,32.26,0,1,1,60.79,0h0s-5.74,13.35,1.85,23.39a45.49,45.49,0,0,1,8.42,52.82h0l-.14.23c-.26.51-.51,1-.79,1.5-2,4.19-5.93,15.36,3,25.84.28.32.56.64.83,1,.08.09.14.18.22.26h0a56.15,56.15,0,1,1-87.58,0Z"/><path class="cls-8" d="M917.11,460.81l13.75,13.6V426.6L914,409.89a2.23,2.23,0,1,1,3.14-3.17l13.75,13.61V354.38a2.23,2.23,0,0,1,4.46,0v39.74l13.38-13.3a2.23,2.23,0,0,1,3.14,3.17l-16.52,16.42v48L950.1,433.5a2.23,2.23,0,0,1,3.18,3.13l-18,18.14V582.15a2.23,2.23,0,0,1-4.46,0V480.69L914,464a2.23,2.23,0,1,1,3.14-3.17Z"/><path class="cls-9" d="M986.44,586.38H912.77a2.48,2.48,0,1,1,0-5h73.67a2.48,2.48,0,1,1,0,5Z"/><rect class="cls-5" x="183.83" y="455.68" width="170.21" height="9.55" rx="1.04" ry="1.04"/><rect class="cls-5" x="183.83" y="478.11" width="100.94" height="9.55" rx="1.04" ry="1.04"/><circle class="cls-5" cx="208.51" cy="401.02" r="30.32" transform="translate(-154.83 132.17) rotate(-26.03)"/><path class="cls-9" d="M901.9,737.16H2.21a2.21,2.21,0,0,1,0-4.42H901.9a2.21,2.21,0,0,1,0,4.42Z"/><rect class="cls-10" x="587.3" y="373.94" width="109.71" height="109.71" rx="4.52" ry="4.52"/><rect class="cls-11" x="506.96" y="783.18" width="115.94" height="53.36" rx="3.24" ry="3.24"/><rect class="cls-10" x="506.96" y="768.97" width="115.94" height="53.36" rx="3.24" ry="3.24"/><path class="cls-1" d="M654.17,457.57a10.24,10.24,0,0,1,9.91,10.28,9.77,9.77,0,0,1-9.82,10,10.24,10.24,0,0,1-9.91-10.28A9.75,9.75,0,0,1,654.17,457.57Z"/><path class="cls-1" d="M841.39,530.71a8.37,8.37,0,0,0-12.38,0,9.8,9.8,0,0,0-.59,13.21,8.38,8.38,0,0,0,12.39,0A9.78,9.78,0,0,0,841.39,530.71Z"/><path class="cls-12" d="M797.54,570l-32-27.53a7.34,7.34,0,0,0-10.94,3.41,10.51,10.51,0,0,0,3.69,12.78l32,27.53a14.57,14.57,0,0,0,19.5-2.81l26.77-33.44-12.87-12.51Z"/><polygon class="cls-1" points="723.9 786.57 736.77 786.09 736.58 763.45 723.48 764.03 723.9 786.57"/><path class="cls-13" d="M703,797.14l34-.39-.2-14.91-20.53.21c-7.41.08-13.37,6.84-13.3,15.09Z"/><polygon class="cls-1" points="781.15 786.57 768.28 786.09 765.58 763.45 778.67 764.03 781.15 786.57"/><path class="cls-13" d="M802.08,797.14l-32.82-.4-1.49-14.9,21,.21c7.42.08,13.38,6.84,13.31,15.09Z"/><polygon class="cls-14" points="723.05 610.67 745.41 609.84 747.73 609.75 770.09 608.92 770.36 641.63 724.75 643.33 723.05 610.67"/><path class="cls-14" d="M763.84,774.26l20.31-.14-10.69-84.21-3.37-81-21.56,3.53,2.92,78.22a11.3,11.3,0,0,0,.23,2.66Z"/><path class="cls-14" d="M719.41,773.29l19.35.17-2.86-80.21,10.82-80.16-23.67-2.42-9.13,81.18a12.23,12.23,0,0,0,0,2.42Z"/><rect class="cls-1" x="740.17" y="527.95" width="13.16" height="17.68"/><path class="cls-1" d="M733.65,517.32a4.38,4.38,0,1,1-4.38-4.37A4.38,4.38,0,0,1,733.65,517.32Z"/><path class="cls-1" d="M768.81,517.32a4.38,4.38,0,1,1-4.37-4.37A4.38,4.38,0,0,1,768.81,517.32Z"/><path class="cls-15" d="M764.82,513.55a18,18,0,1,1-18-18A18,18,0,0,1,764.82,513.55Z"/><path class="cls-12" d="M770.13,612.87H722.62L720.8,557c0-9.36,5.82-16.94,14.6-16.94h22c8.78,0,14.6,7.58,14.6,16.94Z"/><path class="cls-12" d="M723.52,560.56l-35.65-37c-.17-.18-.34-.36-.5-.55l-35-42.3,14.93-12.36,34.75,42,35.4,36.69Z"/><polygon class="cls-1" points="525.8 205.05 538.33 204.58 532.93 182.54 520.19 183.11 525.8 205.05"/><path class="cls-13" d="M505.42,215.34l33.14-.38-.21-14.52-20,.21c-7.22.08-13,6.65-13,14.69Z"/><polygon class="cls-16" points="467.22 139.14 479.75 138.67 472.76 119.67 460.02 120.24 467.22 139.14"/><path class="cls-17" d="M447.78,152.47l33.13-.39-.2-14.51-20,.21c-7.22.08-13,6.65-13,14.69Z"/><path class="cls-18" d="M533.5,65,450,91l7.1-16.85,24,55.37-21.41,1.26L433.47,84.07a12.27,12.27,0,0,1,5.8-16.22l1.31-.63,78.85-37.95Z"/><path class="cls-19" d="M376,104.75a8.16,8.16,0,0,0-12.06,0,9.55,9.55,0,0,0-.57,12.86,8.17,8.17,0,0,0,12.06,0A9.55,9.55,0,0,0,376,104.75Z"/><path class="cls-20" d="M381.48,115,370.9,99.36,415.74,69.1l29.65-49.41,16.21,9.72L430.87,80.63a9.41,9.41,0,0,1-2.82,3Z"/><polygon class="cls-1" points="434.18 19.68 444.43 19.82 447.78 33.32 428.43 30.18 434.18 19.68"/><path class="cls-1" d="M399.41,24.4,402.34,21l4.53,3.86-3.17,2.63-3.16-.29A1.68,1.68,0,0,1,399.41,24.4Z"/><path class="cls-1" d="M405.43,31.06a18,18,0,1,0,2.33-25.31A18,18,0,0,0,405.43,31.06Z"/><g class="cls-21"><polygon class="cls-15" points="403.75 1.87 441.57 30.87 435.43 0 403.75 1.87"/></g><path class="cls-1" d="M422.33,19.05A5,5,0,1,0,423,12,5,5,0,0,0,422.33,19.05Z"/><path class="cls-12" d="M504.39,16.62l.37,37.67-53.69,8.37L440.83,19.77l4.38-1.92a44.34,44.34,0,0,1,26.07-3l8.42.73Z"/><path class="cls-14" d="M504.76,54.29l37.6,2.55V53.19a36.51,36.51,0,0,0-38-36.57h0Z"/><path class="cls-14" d="M542.36,56.84l-26.18,55.21.28-7.15,19.35,88-20.31.24-23.49-82a10.29,10.29,0,0,1-.18-5.07l.46-2.08L505,46.21Z"/><path class="cls-6" d="M485.43,176l-275-52.63a2.61,2.61,0,0,1-2.08-3.06l9.21-48.17A2.63,2.63,0,0,1,220.64,70l275,52.63a2.63,2.63,0,0,1,2.08,3.07l-9.22,48.16A2.61,2.61,0,0,1,485.43,176Z"/><path class="cls-22" d="M478.16,159.87,472,150a12.62,12.62,0,0,0,3.76-6.84,12.75,12.75,0,1,0-14.92,10.12,12.6,12.6,0,0,0,7.8-1l6,9.71Zm-6.35-17.47a8.68,8.68,0,1,1-6.9-10.16A8.69,8.69,0,0,1,471.81,142.4Z"/><path class="cls-1" d="M429.33,143.51a8.16,8.16,0,0,0-12.06,0,9.55,9.55,0,0,0-.56,12.86,8.16,8.16,0,0,0,12.06,0A9.55,9.55,0,0,0,429.33,143.51Z"/><path class="cls-12" d="M434.91,148.32l-15.59-10.69,34.36-50.09-9-52.44,18.64-3.21L473,88.11a9.45,9.45,0,0,1-1.52,7Z"/><path class="cls-2" d="M585.8,732.1H307.63A21.42,21.42,0,0,1,329,710.69H564.4a21.41,21.41,0,0,1,21.4,21.41Z"/><path class="cls-1" d="M128.24,832.65c0-1-2.43-26.77-2.43-26.77l13.37-2.68,2.6,26.76Z"/><path class="cls-17" d="M166.67,830.8l-37.27,7.63L127.11,827l25.73-5.28a11.7,11.7,0,0,1,13.83,9.09Z"/><path class="cls-18" d="M78.46,687.79,130.9,728l1.66,1.28a12.3,12.3,0,0,1,4.75,8.68l6.4,73.75-18.61,2.75-12.45-75.76,6.41,10L57,722.71Z"/><path class="cls-20" d="M44.93,711.88,90.14,695.8a7.15,7.15,0,0,0,4.72-8.95L75.67,624.91l-36.1,11.18a24.55,24.55,0,0,0-16.19,30.73Z"/><path class="cls-10" d="M181.11,696.29l-89.47,22.5a4.14,4.14,0,0,1-5-3l-22.5-89.47a4.14,4.14,0,0,1,3-5l89.46-22.5a4.15,4.15,0,0,1,5,3l22.5,89.47A4.14,4.14,0,0,1,181.11,696.29Z"/><path class="cls-1" d="M44.6,854.07c.24-1,3.9-26.42,3.9-26.42l13.6,1-3.74,26.45Z"/><path class="cls-13" d="M82.56,861.31l-38.05-.11.08-11.67,26.27.07a11.7,11.7,0,0,1,11.7,11.71Z"/><path class="cls-14" d="M76.12,698l6.65,53,.48,2.72a9.94,9.94,0,0,1-.11,3.89L65.9,839.4l-20.35-1.49,11.27-83,.36,6.61L44.52,710Z"/><path class="cls-1" d="M132.81,671.44a8.94,8.94,0,1,1-6.65-10.75A8.92,8.92,0,0,1,132.81,671.44Z"/><polygon class="cls-1" points="118.82 664.57 100.9 674.38 106.54 682.64 127.56 672.92 118.82 664.57"/><path class="cls-1" d="M68.27,598.44,64,596.94l-2,5.67,4.1.68,2.61-1.86A1.7,1.7,0,0,0,68.27,598.44Z"/><path class="cls-1" d="M66.43,607.31a18.13,18.13,0,1,1-14.92-20.86A18.13,18.13,0,0,1,66.43,607.31Z"/><g class="cls-23"><polygon class="cls-15" points="53.02 581.03 34.87 625.55 24.48 595.54 53.02 581.03"/></g><path class="cls-1" d="M45.59,605.45a5.08,5.08,0,1,1-4.18-5.84A5.07,5.07,0,0,1,45.59,605.45Z"/><path class="cls-15" d="M33.2,617.57a15.87,15.87,0,1,1-8.28-20.86A15.87,15.87,0,0,1,33.2,617.57Z"/><path class="cls-1" d="M56.38,619.5l1.79,25.1-16.43-9.34.61-15.34Z"/><path class="cls-12" d="M67.21,711.93a10.08,10.08,0,0,1-8.61-4.3L26.63,662a10.09,10.09,0,0,1,2.48-14.06h0a10.09,10.09,0,0,1,14.07,2.47l26.66,38.07L109,665.94l10.08,17.51L71.91,710.59A10,10,0,0,1,67.21,711.93Z"/><rect class="cls-6" x="160.6" y="259.79" width="177.47" height="9.55" rx="1.04" ry="1.04"/><rect class="cls-6" x="160.6" y="319.93" width="177.47" height="9.55" rx="1.04" ry="1.04"/><rect class="cls-6" x="160.6" y="289.73" width="217.52" height="9.55" rx="1.04" ry="1.04"/></g></g></svg>