<svg xmlns="http://www.w3.org/2000/svg" xmlns:xlink="http://www.w3.org/1999/xlink" viewBox="0 0 83.62 129.14"><defs><style>.cls-1{fill:#edbba0;}.cls-2{fill:#161616;}.cls-3{fill:#1e3248;}.cls-4{fill:#e9c66f;}.cls-5{fill:#279aff;}.cls-6{fill:#27222e;}.cls-7{fill:#20375e;}.cls-8{clip-path:url(#clip-path);}.cls-9{fill:#182543;}.cls-10{fill:#f2d279;}</style><clipPath id="clip-path"><path class="cls-1" d="M29.34,12.11A8.36,8.36,0,1,1,22.46,2.5,8.35,8.35,0,0,1,29.34,12.11Z"/></clipPath></defs><title>Recurso 7</title><g id="Capa_2" data-name="Capa 2"><g id="Capa_1-2" data-name="Capa 1"><path class="cls-1" d="M57.82,115.94c0-.48-1.12-12.34-1.12-12.34l6.16-1.23,1.2,12.33Z"/><path class="cls-2" d="M75.53,115.09l-17.18,3.52-1.05-5.28,11.86-2.43a5.4,5.4,0,0,1,6.37,4.19Z"/><path class="cls-3" d="M34.88,49.19,59,67.73l.77.59a5.71,5.71,0,0,1,2.19,4l3,34-8.58,1.27L50.64,72.66l3,4.59L25,65.28Z"/><path class="cls-4" d="M19.43,60.29l20.84-7.41a3.3,3.3,0,0,0,2.17-4.12L33.6,20.22,17,25.37A11.32,11.32,0,0,0,9.5,39.53Z"/><rect class="cls-5" x="32.75" y="12.66" width="46.33" height="46.33" rx="1.91" ry="1.91" transform="translate(-7.05 14.72) rotate(-14.12)"/><path class="cls-1" d="M19.28,125.81c.11-.47,1.8-12.18,1.8-12.18l6.26.46-1.72,12.19Z"/><path class="cls-6" d="M36.77,129.14l-17.53,0,0-5.38,12.1,0a5.39,5.39,0,0,1,5.39,5.39Z"/><path class="cls-7" d="M33.8,53.88l3.07,24.41.22,1.26A4.67,4.67,0,0,1,37,81.34l-7.95,37.71-9.37-.69,5.19-38.25.17,3L19.24,59.4Z"/><path class="cls-1" d="M59.93,41.66a4.12,4.12,0,1,1-3.07-4.95A4.12,4.12,0,0,1,59.93,41.66Z"/><polygon class="cls-1" points="53.48 38.49 45.22 43.01 47.82 46.82 57.51 42.34 53.48 38.49"/><path class="cls-1" d="M29.34,12.11A8.36,8.36,0,1,1,22.46,2.5,8.35,8.35,0,0,1,29.34,12.11Z"/><g class="cls-8"><polygon class="cls-9" points="23.16 0 14.79 20.52 10.01 6.69 23.16 0"/></g><path class="cls-1" d="M19.74,11.25a2.34,2.34,0,1,1-1.93-2.69A2.34,2.34,0,0,1,19.74,11.25Z"/><path class="cls-9" d="M14,16.83a7.31,7.31,0,1,1-3.81-9.61A7.31,7.31,0,0,1,14,16.83Z"/><path class="cls-1" d="M24.71,17.73l.82,11.56L18,25l.28-7.07Z"/><path class="cls-10" d="M31.08,58a4.65,4.65,0,0,1-4-2L12.38,35a4.66,4.66,0,0,1,1.14-6.48h0A4.66,4.66,0,0,1,20,29.66L32.29,47.2l18-10.38L55,44.89,33.25,57.39A4.55,4.55,0,0,1,31.08,58Z"/></g></g></svg>